Coordinates
version=1
nRows=17
nColumns=24
inDegrees=yes

Units are S.I. units (second, meters, Newtons, ...)
Angles are in degrees.

endheader
time	pelvis_tilt	pelvis_list	pelvis_rotation	pelvis_tx	pelvis_ty	pelvis_tz	hip_flexion_r	hip_adduction_r	hip_rotation_r	knee_angle_r	ankle_angle_r	subtalar_angle_r	mtp_angle_r	hip_flexion_l	hip_adduction_l	hip_rotation_l	knee_angle_l	ankle_angle_l	subtalar_angle_l	mtp_angle_l	lumbar_extension	lumbar_bending	lumbar_rotation
      0.01000000	     52.12676943	     -6.51026972	     -0.36284185	     -0.56945069	      1.09691865	     -0.08851212	     21.61341458	    -13.34811664	     -3.26568590	    -70.03333151	    -11.65596910	      5.23543921	      0.00000000	     23.34707160	    -10.62291040	      6.52949099	     -0.17311330	    -33.40177126	     13.73464688	      0.00000000	      0.00000000	      0.00000000	      0.00000000
      0.02000000	     52.12059719	     -6.50649286	     -0.36061693	     -0.56942762	      1.09695756	     -0.08844753	     21.61898739	    -13.35501287	     -3.27248520	    -70.03711297	    -11.65511853	      5.24026222	      0.00000000	     23.35413289	    -10.62240085	      6.53121570	     -0.18214595	    -33.40608367	     13.77497683	      0.00000000	      0.00000000	      0.00000000	      0.00000000
      0.03000000	     52.11379499	     -6.50289364	     -0.35783493	     -0.56940978	      1.09697357	     -0.08842243	     21.62527013	    -13.36185914	     -3.27895885	    -70.04068316	    -11.65390549	      5.24484696	      0.00000000	     23.36277398	    -10.62137901	      6.53352492	     -0.19077898	    -33.40989123	     13.81514428	      0.00000000	      0.00000000	      0.00000000	      0.00000000
      0.04000000	     52.10643128	     -6.50011920	     -0.35481372	     -0.56939536	      1.09697109	     -0.08842399	     21.63230662	    -13.36816146	     -3.28472522	    -70.04368549	    -11.65216379	      5.24876516	      0.00000000	     23.37264391	    -10.61956365	      6.53691876	     -0.19832344	    -33.41301189	     13.85314583	      0.00000000	      0.00000000	      0.00000000	      0.00000000
      0.05000000	     52.09874911	     -6.49875578	     -0.35208087	     -0.56938071	      1.09696428	     -0.08843133	     21.63999771	    -13.37321801	     -3.28934574	    -70.04565088	    -11.64972831	      5.25144906	      0.00000000	     23.38277138	    -10.61703455	      6.54204478	     -0.20388430	    -33.41541825	     13.88628469	      0.00000000	      0.00000000	      0.00000000	      0.00000000
      0.06000000	     52.09101618	     -6.49885640	     -0.35021275	     -0.56936752	      1.09696182	     -0.08843372	     21.64783908	    -13.37632744	     -3.29239839	    -70.04620404	    -11.64650983	      5.25233331	      0.00000000	     23.39160678	    -10.61467922	      6.54943440	     -0.20654151	    -33.41745161	     13.91190871	      0.00000000	      0.00000000	      0.00000000	      0.00000000
      0.07000000	     52.08355040	     -6.50014409	     -0.34974004	     -0.56936020	      1.09696141	     -0.08843633	     21.65482146	    -13.37700546	     -3.29350792	    -70.04535879	    -11.64254694	      5.25099253	      0.00000000	     23.39756645	    -10.61374443	      6.55915911	     -0.20545522	    -33.41992373	     13.92811236	      0.00000000	      0.00000000	      0.00000000	      0.00000000
      0.08000000	     52.07689368	     -6.50244073	     -0.35102468	     -0.56935488	      1.09696065	     -0.08844528	     21.65975437	    -13.37506259	     -3.29250565	    -70.04367663	    -11.63803641	      5.24726490	      0.00000000	     23.39965418	    -10.61487698	      6.57052902	     -0.20006988	    -33.42405348	     13.93418145	      0.00000000	      0.00000000	      0.00000000	      0.00000000
      0.09000000	     52.07169478	     -6.50572036	     -0.35394559	     -0.56934095	      1.09696187	     -0.08844998	     21.66190247	    -13.37059849	     -3.28968079	    -70.04203919	    -11.63334690	      5.24136050	      0.00000000	     23.39758335	    -10.61761077	      6.58198815	     -0.19053278	    -33.43125860	     13.93072056	      0.00000000	      0.00000000	      0.00000000	      0.00000000
      0.10000000	     52.06830112	     -6.50985379	     -0.35762171	     -0.56931763	      1.09696607	     -0.08843042	     21.66141076	    -13.36413285	     -3.28581741	    -70.04117624	    -11.62900661	      5.23392467	      0.00000000	     23.39155406	    -10.62073010	      6.59132636	     -0.17802580	    -33.44286414	     13.91952201	      0.00000000	      0.00000000	      0.00000000	      0.00000000
      0.11000000	     52.06676760	     -6.51425612	     -0.36065541	     -0.56929815	      1.09697180	     -0.08838964	     21.65916905	    -13.35677155	     -3.28192315	    -70.04138174	    -11.62562846	      5.22602358	      0.00000000	     23.38241093	    -10.62319382	      6.59625262	     -0.16449649	    -33.45976613	     13.90324584	      0.00000000	      0.00000000	      0.00000000	      0.00000000
      0.12000000	     52.06717129	     -6.51812125	     -0.36198102	     -0.56929201	      1.09697953	     -0.08835394	     21.65627113	    -13.35005221	     -3.27882840	    -70.04264166	    -11.62373325	      5.21903056	      0.00000000	     23.37191024	    -10.62444239	      6.59525677	     -0.15199404	    -33.48206936	     13.88497986	      0.00000000	      0.00000000	      0.00000000	      0.00000000
      0.13000000	     52.06935524	     -6.52106531	     -0.36153306	     -0.56929530	      1.09698683	     -0.08833579	     21.65350504	    -13.34545675	     -3.27683161	    -70.04498022	    -11.62350343	      5.21438790	      0.00000000	     23.36217236	    -10.62403994	      6.58837734	     -0.14238724	    -33.50869459	     13.86778919	      0.00000000	      0.00000000	      0.00000000	      0.00000000
      0.14000000	     52.07255189	     -6.52298831	     -0.36004984	     -0.56929920	      1.09698489	     -0.08832730	     21.65131194	    -13.34389726	     -3.27558872	    -70.04862393	    -11.62458134	      5.21324798	      0.00000000	     23.35471204	    -10.62183168	      6.57734569	     -0.13750192	    -33.53695828	     13.85435878	      0.00000000	      0.00000000	      0.00000000	      0.00000000
      0.15000000	     52.07565898	     -6.52358187	     -0.35849539	     -0.56929879	      1.09696881	     -0.08832185	     21.65003296	    -13.34539935	     -3.27435257	    -70.05390913	    -11.62603499	      5.21607689	      0.00000000	     23.35009295	    -10.61823046	      6.56498147	     -0.13907818	    -33.56231142	     13.84674923	      0.00000000	      0.00000000	      0.00000000	      0.00000000
      0.16000000	     52.07786697	     -6.52261837	     -0.35772369	     -0.56929417	      1.09694606	     -0.08831759	     21.64998715	    -13.34916644	     -3.27236619	    -70.06109441	    -11.62654864	      5.22237410	      0.00000000	     23.34831857	    -10.61378173	      6.55418646	     -0.14831024	    -33.57867936	     13.84618613	      0.00000000	      0.00000000	      0.00000000	      0.00000000
      0.17000000	     52.07891910	     -6.52046352	     -0.35823083	     -0.56928711	      1.09692832	     -0.08830969	     21.65147942	    -13.35405115	     -3.26919184	    -70.07006708	    -11.62480454	      5.23067267	      0.00000000	     23.34913106	    -10.60877998	      6.54703003	     -0.16532995	    -33.57990968	     13.85280987	      0.00000000	      0.00000000	      0.00000000	      0.00000000
